<svg xmlns="http://www.w3.org/2000/svg" viewBox="0 0 458 1098" width="458" height="1098"><defs><style type="text/css">@import url('https://fonts.googleapis.com/css?family=Roboto+Mono:400|Roboto:400,&amp;subset=cyrillic,cyrillic-ext,greek,greek-ext,latin-ext')</style></defs><g transform="translate(5,5)"><g><g><g transform="translate(0, 288)"><path d="M49.5 28 L224 28 L417 28 A3 3 0 0 1 419.5 31 L410.75 112 L401.5 194 A3 3 0 0 1 398.5 196 L224 196 L31 196 A3 3 0 0 1 28.5 193 L37.25 112 L46.5 30 A3 3 0 0 1 49.5 28 Z" fill="#ffffff" stroke="#4d9ef6" stroke-width="2"/><g transform="translate(43, 42)"><text font-size="14" font-family="Roboto,sans-serif" x="181" y="15" text-anchor="middle" fill="#52565f">Select:</text><text font-size="14" font-family="Roboto,sans-serif" x="181" y="35" text-anchor="middle" fill="#52565f">1. pick up and return branch</text><text font-size="14" font-family="Roboto,sans-serif" x="181" y="55" text-anchor="middle" fill="#52565f">2. pickup and return date and time</text><text font-size="14" font-family="Roboto,sans-serif" x="181" y="75" text-anchor="middle" fill="#52565f">3. Age of driver</text><text font-size="14" font-family="Roboto,sans-serif" x="181" y="95" text-anchor="middle" fill="#52565f">Confirm:</text><text font-size="14" font-family="Roboto,sans-serif" x="181" y="115" text-anchor="middle" fill="#52565f">1. Driver has valid driving license</text><text font-size="14" font-family="Roboto,sans-serif" x="181" y="135" text-anchor="middle" fill="#52565f">2. Driver has read terms and conditions</text></g></g><g transform="translate(0, 512)"><path d="M49.5 28 L224 28 L417 28 A3 3 0 0 1 419.5 31 L410.75 96 L401.5 162 A3 3 0 0 1 398.5 164 L224 164 L31 164 A3 3 0 0 1 28.5 161 L37.25 96 L46.5 30 A3 3 0 0 1 49.5 28 Z" fill="#ffffff" stroke="#4d9ef6" stroke-width="2"/><g transform="translate(43, 36)"><text font-size="14" font-family="Roboto,sans-serif" x="181" y="55" text-anchor="middle" fill="#52565f">1. Select Car brand and type</text><text font-size="14" font-family="Roboto,sans-serif" x="181" y="75" text-anchor="middle" fill="#52565f">2. Enter Driver's name, phone no., email, ID no. and remark</text></g></g><g transform="translate(112, 160)"><path d="M64 28 L112 28 L160 28 C182 28 196 42 196 64 L196 64 L196 64 C196 86 182 100 160 100 L112 100 L64 100 C42 100 28 86 28 64 L28 64 L28 64 C28 42 42 28 64 28 Z" fill="#ffffff" stroke="#4d9ef6" stroke-width="2"/><g transform="translate(36, 34)"><text font-size="14" font-family="Roboto,sans-serif" x="76" y="35" text-anchor="middle" fill="#52565f">Homepage</text></g></g><g transform="translate(112, 704)"><path d="M31.5 28 L112 28 L192.5 28 C194.5 28 196 29.5 196 31.5 L196 64 L196 96.5 C196 98.5 194.5 100 192.5 100 L112 100 L31.5 100 C29.5 100 28 98.5 28 96.5 L28 64 L28 31.5 C28 29.5 29.5 28 31.5 28 Z" fill="#ffffff" stroke="#4d9ef6" stroke-width="2"/><g transform="translate(36, 34)"><text font-size="14" font-family="Roboto,sans-serif" x="76" y="35" text-anchor="middle" fill="#52565f">Submit order</text></g></g><g transform="translate(112, 832)"><path d="M31.5 28 L112 28 L192.5 28 C194.5 28 196 29.5 196 31.5 L196 64 L196 96.5 C196 98.5 194.5 100 192.5 100 L112 100 L31.5 100 C29.5 100 28 98.5 28 96.5 L28 64 L28 31.5 C28 29.5 29.5 28 31.5 28 Z" fill="#ffffff" stroke="#4d9ef6" stroke-width="2"/><g transform="translate(36, 34)"><text font-size="14" font-family="Roboto,sans-serif" x="76" y="35" text-anchor="middle" fill="#52565f">Confirm order</text></g></g><g transform="translate(112, 960)"><path d="M31.5 28 L112 28 L192.5 28 C194.5 28 196 29.5 196 31.5 L196 64 L196 96.5 C196 98.5 194.5 100 192.5 100 L112 100 L31.5 100 C29.5 100 28 98.5 28 96.5 L28 64 L28 31.5 C28 29.5 29.5 28 31.5 28 Z" fill="#ffffff" stroke="#4d9ef6" stroke-width="2"/><g transform="translate(36, 34)"><text font-size="14" font-family="Roboto,sans-serif" x="76" y="35" text-anchor="middle" fill="#52565f">Send confirmation email</text></g></g></g><g><g><path fill="none" stroke="#4d9ef6" stroke-width="2" stroke-dasharray="0px 0px" d="M 224,261L 224,288L 224,288L 224,313"/><path transform="translate( 227, 263 ) rotate( 180 )" d="M3 6C4.65685 6 6 4.65685 6 3C6 1.34315 4.65685 0 3 0C1.34315 0 0 1.34315 0 3C0 4.65685 1.34315 6 3 6Z" fill="#4d9ef6"/><path transform="translate( 231, 315 ) rotate( 540 )" d="M6.34003 0.275664C6.70452 -0.0918881 7.29548 -0.0918881 7.65997 0.275664L13.7266 6.39331C14.0911 6.76086 14.0911 7.35678 13.7266 7.72434C13.3621 8.09189 12.7712 8.09189 12.4067 7.72434L7 2.2722L1.5933 7.72434C1.22881 8.09189 0.637856 8.09189 0.273367 7.72434C-0.0911224 7.35678 -0.0911224 6.76086 0.273367 6.39331L6.34003 0.275664Z" fill="#4d9ef6"/></g><g><path fill="none" stroke="#4d9ef6" stroke-width="2" stroke-dasharray="0px 0px" d="M 224,485L 224,512L 224,512L 224,537"/><path transform="translate( 227, 487 ) rotate( 180 )" d="M3 6C4.65685 6 6 4.65685 6 3C6 1.34315 4.65685 0 3 0C1.34315 0 0 1.34315 0 3C0 4.65685 1.34315 6 3 6Z" fill="#4d9ef6"/><path transform="translate( 231, 539 ) rotate( 540 )" d="M6.34003 0.275664C6.70452 -0.0918881 7.29548 -0.0918881 7.65997 0.275664L13.7266 6.39331C14.0911 6.76086 14.0911 7.35678 13.7266 7.72434C13.3621 8.09189 12.7712 8.09189 12.4067 7.72434L7 2.2722L1.5933 7.72434C1.22881 8.09189 0.637856 8.09189 0.273367 7.72434C-0.0911224 7.35678 -0.0911224 6.76086 0.273367 6.39331L6.34003 0.275664Z" fill="#4d9ef6"/></g><g><path fill="none" stroke="#4d9ef6" stroke-width="2" stroke-dasharray="0px 0px" d="M 224,677L 224,704L 224,704L 224,729"/><path transform="translate( 227, 679 ) rotate( 180 )" d="M3 6C4.65685 6 6 4.65685 6 3C6 1.34315 4.65685 0 3 0C1.34315 0 0 1.34315 0 3C0 4.65685 1.34315 6 3 6Z" fill="#4d9ef6"/><path transform="translate( 231, 731 ) rotate( 540 )" d="M6.34003 0.275664C6.70452 -0.0918881 7.29548 -0.0918881 7.65997 0.275664L13.7266 6.39331C14.0911 6.76086 14.0911 7.35678 13.7266 7.72434C13.3621 8.09189 12.7712 8.09189 12.4067 7.72434L7 2.2722L1.5933 7.72434C1.22881 8.09189 0.637856 8.09189 0.273367 7.72434C-0.0911224 7.35678 -0.0911224 6.76086 0.273367 6.39331L6.34003 0.275664Z" fill="#4d9ef6"/></g><g><path fill="none" stroke="#4d9ef6" stroke-width="2" stroke-dasharray="0px 0px" d="M 224,805L 224,832L 224,832L 224,857"/><path transform="translate( 227, 807 ) rotate( 180 )" d="M3 6C4.65685 6 6 4.65685 6 3C6 1.34315 4.65685 0 3 0C1.34315 0 0 1.34315 0 3C0 4.65685 1.34315 6 3 6Z" fill="#4d9ef6"/><path transform="translate( 231, 859 ) rotate( 540 )" d="M6.34003 0.275664C6.70452 -0.0918881 7.29548 -0.0918881 7.65997 0.275664L13.7266 6.39331C14.0911 6.76086 14.0911 7.35678 13.7266 7.72434C13.3621 8.09189 12.7712 8.09189 12.4067 7.72434L7 2.2722L1.5933 7.72434C1.22881 8.09189 0.637856 8.09189 0.273367 7.72434C-0.0911224 7.35678 -0.0911224 6.76086 0.273367 6.39331L6.34003 0.275664Z" fill="#4d9ef6"/></g><g><path fill="none" stroke="#4d9ef6" stroke-width="2" stroke-dasharray="0px 0px" d="M 224,933L 224,960L 224,960L 224,985"/><path transform="translate( 227, 935 ) rotate( 180 )" d="M3 6C4.65685 6 6 4.65685 6 3C6 1.34315 4.65685 0 3 0C1.34315 0 0 1.34315 0 3C0 4.65685 1.34315 6 3 6Z" fill="#4d9ef6"/><path transform="translate( 231, 987 ) rotate( 540 )" d="M6.34003 0.275664C6.70452 -0.0918881 7.29548 -0.0918881 7.65997 0.275664L13.7266 6.39331C14.0911 6.76086 14.0911 7.35678 13.7266 7.72434C13.3621 8.09189 12.7712 8.09189 12.4067 7.72434L7 2.2722L1.5933 7.72434C1.22881 8.09189 0.637856 8.09189 0.273367 7.72434C-0.0911224 7.35678 -0.0911224 6.76086 0.273367 6.39331L6.34003 0.275664Z" fill="#4d9ef6"/></g></g><g><g transform="translate(36, 20)"><rect width="384" height="144" fill="none" stroke="none" stroke-width="2" stroke-dasharray="0px 0px"/><g><g><g transform="translate(16, 16)"><g transform="translate(0, 0)"><text x="62.400001525878906" y="38" fill="#50e3c2" font-size="40px" font-variant="underline color size bold" font-family="Roboto,sans-serif">Green Rental</text><line x1="62.400001525878906" x2="NaN" y1="NaN" y2="NaN" stroke="#52565f" stroke-width="0.7000000000000001"/></g><g transform="translate(0, 48)"><text x="0" y="13.3" fill="#52565f" font-size="14" font-variant="" font-family="Roboto,sans-serif" font-weight="400"/></g><g transform="translate(0, 64.8)"><text x="0" y="13.3" fill="#52565f" font-size="14" font-variant="" font-family="Roboto,sans-serif" font-weight="400"/></g><g transform="translate(0, 81.6)"><text x="83.61666870117188" y="19" fill="#52565f" font-size="20px" font-variant="size bold" font-family="Roboto,sans-serif">Car Rental User Flow</text></g></g></g></g></g></g></g></g></svg>